<svg width="63" height="63" viewBox="0 0 63 63" fill="none" xmlns="http://www.w3.org/2000/svg">
<rect width="62.2222" height="62.2222" rx="17.7778" fill="#E9E4DB" fill-opacity="0.4"/>
<path d="M26.6667 26.9444C26.2064 26.9444 25.8333 27.3175 25.8333 27.7778C25.8333 28.238 26.2064 28.6111 26.6667 28.6111H35.5556C36.0158 28.6111 36.3889 28.238 36.3889 27.7778C36.3889 27.3175 36.0158 26.9444 35.5556 26.9444H26.6667Z" fill="#0F0F10"/>
<path fill-rule="evenodd" clip-rule="evenodd" d="M31.1111 19.1667C28.4109 19.1667 26.1844 21.1944 25.8711 23.8102C25.4336 23.894 25.0306 24.0151 24.644 24.1923C23.5269 24.7044 22.5811 25.5279 21.9202 26.564C21.5201 27.1911 21.2828 27.8925 21.0963 28.7483C20.9136 29.5867 20.7684 30.632 20.5837 31.9618L20.5735 32.0354C20.3358 33.7466 20.15 35.0843 20.0936 36.1619C20.0363 37.2559 20.1056 38.1676 20.4347 39.0046C20.9726 40.3726 21.9658 41.5133 23.2469 42.2343C24.0306 42.6754 24.9241 42.8695 26.0156 42.9632C27.0906 43.0556 28.4412 43.0556 30.1688 43.0556H32.0534C33.781 43.0556 35.1316 43.0556 36.2066 42.9632C37.2981 42.8695 38.1916 42.6754 38.9754 42.2343C40.2564 41.5133 41.2496 40.3726 41.7875 39.0046C42.1166 38.1676 42.1859 37.2559 42.1286 36.1619C42.0722 35.0843 41.8864 33.7466 41.6487 32.0353L41.6385 31.9617C41.4538 30.632 41.3086 29.5867 41.1259 28.7483C40.9395 27.8925 40.7021 27.1911 40.302 26.564C39.6411 25.5279 38.6954 24.7044 37.5782 24.1923C37.1916 24.0151 36.7886 23.894 36.3512 23.8102C36.0379 21.1944 33.8113 19.1667 31.1111 19.1667ZM30.1585 23.6111C29.1561 23.6111 28.3125 23.6111 27.5901 23.6393C27.956 22.0325 29.3935 20.8333 31.1111 20.8333C32.8287 20.8333 34.2662 22.0325 34.6321 23.6393C33.9098 23.6111 33.0661 23.6111 32.0638 23.6111H30.1585ZM26.7538 25.3651C27.5741 25.2789 28.6362 25.2778 30.2088 25.2778H32.0134C33.586 25.2778 34.6481 25.2789 35.4685 25.3651C36.0814 25.4295 36.5143 25.538 36.8837 25.7073C37.7094 26.0859 38.4084 26.6945 38.8969 27.4603C39.1491 27.8556 39.3322 28.3447 39.4975 29.1032C39.665 29.8718 39.802 30.8539 39.9924 32.2251C40.2367 33.9844 40.412 35.2514 40.4642 36.249C40.5161 37.2385 40.4401 37.8766 40.2364 38.3947C39.8388 39.4058 39.1047 40.2489 38.1579 40.7819C37.6728 41.0549 37.0511 41.2179 36.064 41.3027C35.0686 41.3882 33.7895 41.3889 32.0134 41.3889H30.2088C28.4327 41.3889 27.1536 41.3882 26.1582 41.3027C25.1711 41.2179 24.5494 41.0549 24.0643 40.7819C23.1175 40.2489 22.3834 39.4058 21.9858 38.3947C21.7821 37.8766 21.7062 37.2385 21.758 36.249C21.8102 35.2514 21.9855 33.9844 22.2298 32.2251C22.4203 30.8539 22.5572 29.8718 22.7247 29.1032C22.89 28.3447 23.0731 27.8556 23.3253 27.4603C23.8138 26.6945 24.5128 26.0859 25.3386 25.7073C25.708 25.538 26.1408 25.4295 26.7538 25.3651Z" fill="#0F0F10"/>
</svg>
