<svg width="63" height="63" viewBox="0 0 63 63" fill="none" xmlns="http://www.w3.org/2000/svg">
<rect width="62.2222" height="62.2222" rx="17.7778" fill="#E9E4DB" fill-opacity="0.4"/>
<path fill-rule="evenodd" clip-rule="evenodd" d="M31.1111 19.1667C28.1963 19.1667 25.8333 21.5296 25.8333 24.4444C25.8333 27.3593 28.1963 29.7222 31.1111 29.7222C34.0259 29.7222 36.3889 27.3593 36.3889 24.4444C36.3889 21.5296 34.0259 19.1667 31.1111 19.1667ZM27.5 24.4444C27.5 22.4501 29.1167 20.8333 31.1111 20.8333C33.1055 20.8333 34.7222 22.4501 34.7222 24.4444C34.7222 26.4388 33.1055 28.0556 31.1111 28.0556C29.1167 28.0556 27.5 26.4388 27.5 24.4444Z" fill="#0F0F10"/>
<path fill-rule="evenodd" clip-rule="evenodd" d="M27.7778 31.3889C24.8629 31.3889 22.5 33.7518 22.5 36.6667C22.5 39.5815 24.8629 41.9444 27.7778 41.9444H34.4444C37.3593 41.9444 39.7222 39.5815 39.7222 36.6667C39.7222 33.7518 37.3593 31.3889 34.4444 31.3889H27.7778ZM24.1667 36.6667C24.1667 34.6723 25.7834 33.0556 27.7778 33.0556H34.4444C36.4388 33.0556 38.0556 34.6723 38.0556 36.6667C38.0556 38.661 36.4388 40.2778 34.4444 40.2778H27.7778C25.7834 40.2778 24.1667 38.661 24.1667 36.6667Z" fill="#0F0F10"/>
</svg>
