<svg width="20" height="29" viewBox="0 0 20 29" fill="none" xmlns="http://www.w3.org/2000/svg">
<path fill-rule="evenodd" clip-rule="evenodd" d="M9.88028 6.07985e-06C8.61804 -9.41443e-05 7.84917 -0.000155071 7.18594 0.104889C3.54093 0.682202 0.682203 3.54093 0.10489 7.18594C-0.000154464 7.84917 -9.3622e-05 8.61803 6.42549e-06 9.88028L6.07228e-06 19.0086C-2.7129e-05 19.4271 -5.60294e-05 19.7914 0.00374898 20.1156C0.00126307 20.2002 1.13705e-05 20.2852 1.13705e-05 20.3704C1.13705e-05 22.611 0.865085 24.6496 2.27946 26.1704C2.41957 26.321 2.56507 26.4666 2.71565 26.6068C4.23672 28.0227 6.27647 28.8889 8.51853 28.8889L11.4815 28.8889C16.1861 28.8889 20 25.075 20 20.3704C20 20.2852 19.9988 20.2002 19.9963 20.1156C20.0001 19.7914 20.0001 19.4271 20 19.0086V9.88026C20.0001 8.61803 20.0002 7.84916 19.8951 7.18594C19.3178 3.54093 16.4591 0.682202 12.8141 0.10489C12.1509 -0.000154807 11.382 -9.39677e-05 10.1197 6.07985e-06H9.88028ZM2.29975 21.3553C2.50483 22.6502 3.09942 23.8108 3.96084 24.7145C4.05612 24.8144 4.15465 24.9112 4.25627 25.0047C5.14771 25.8247 6.27748 26.3902 7.53357 26.5892C8.00123 26.6632 8.58125 26.6667 10 26.6667C11.4188 26.6667 11.9988 26.6632 12.4665 26.5892C15.1606 26.1625 17.2736 24.0495 17.7003 21.3553C17.7476 21.0563 17.7661 20.7113 17.7733 20.1303C17.6471 16.7642 14.8785 14.0741 11.4815 14.0741H8.51853C5.12157 14.0741 2.35291 16.7642 2.22673 20.1303C2.2339 20.7113 2.25239 21.0563 2.29975 21.3553ZM11.4815 11.8519C13.9759 11.8519 16.2199 12.924 17.7778 14.6325V10C17.7778 8.58125 17.7743 8.00123 17.7003 7.53357C17.2736 4.83944 15.1606 2.72646 12.4665 2.29975C12.1457 2.24895 11.772 2.23137 11.1111 2.22534V10C11.1111 10.6137 10.6137 11.1111 10 11.1111C9.38636 11.1111 8.8889 10.6137 8.8889 10L8.8889 2.22534C8.22799 2.23137 7.85435 2.24895 7.53358 2.29975C4.83944 2.72646 2.72646 4.83944 2.29975 7.53357C2.22568 8.00123 2.22224 8.58125 2.22224 10L2.22223 14.6325C3.78015 12.924 6.02414 11.8519 8.51853 11.8519H11.4815Z" fill="#1E1E1E"/>
</svg>
