<svg width="63" height="63" viewBox="0 0 63 63" fill="none" xmlns="http://www.w3.org/2000/svg">
<rect width="62.2222" height="62.2222" rx="17.7778" fill="#E9E4DB" fill-opacity="0.4"/>
<g clip-path="url(#clip0_983_1344)">
<path fill-rule="evenodd" clip-rule="evenodd" d="M30 18.0556C24.0169 18.0556 19.1667 22.9058 19.1667 28.8889C19.1667 34.872 24.0169 39.7222 30 39.7222C35.9831 39.7222 40.8333 34.872 40.8333 28.8889C40.8333 22.9058 35.9831 18.0556 30 18.0556ZM20.8333 28.8889C20.8333 23.8263 24.9374 19.7222 30 19.7222C35.0626 19.7222 39.1667 23.8263 39.1667 28.8889C39.1667 33.9515 35.0626 38.0556 30 38.0556C24.9374 38.0556 20.8333 33.9515 20.8333 28.8889Z" fill="#0F0F10"/>
<path d="M39.4782 37.1886C39.1528 36.8632 38.6251 36.8632 38.2997 37.1886C37.9743 37.5141 37.9743 38.0417 38.2997 38.3671L42.744 42.8115C43.0695 43.137 43.5971 43.137 43.9225 42.8115C44.248 42.4861 44.248 41.9585 43.9225 41.633L39.4782 37.1886Z" fill="#0F0F10"/>
</g>
<defs>
<clipPath id="clip0_983_1344">
<rect width="26.6667" height="26.6667" fill="white" transform="translate(17.7778 17.7778)"/>
</clipPath>
</defs>
</svg>
